<?xml version="1.0" standalone="no"?>
<!DOCTYPE svg PUBLIC "-//W3C//DTD SVG 20010904//EN"
 "http://www.w3.org/TR/2001/REC-SVG-20010904/DTD/svg10.dtd">
<svg version="1.0" xmlns="http://www.w3.org/2000/svg"
 width="100.000000pt" height="100.000000pt" viewBox="0 0 100.000000 100.000000"
 preserveAspectRatio="xMidYMid meet">
<metadata>
Created by potrace 1.14, written by Peter Selinger 2001-2017
</metadata>
<g transform="translate(0.000000,100.000000) scale(0.100000,-0.100000)"
fill="#000000" stroke="none">
<path d="M684 982 c-20 -14 -44 -57 -44 -78 0 -12 8 -36 17 -52 17 -29 17 -32
0 -67 -26 -54 -3 -80 24 -27 25 50 26 67 7 105 -17 34 -17 39 -3 68 17 33 17
63 -1 51z"/>
<path d="M773 982 c-7 -4 -19 -24 -28 -45 -14 -35 -14 -40 4 -79 19 -42 19
-43 0 -80 -20 -38 -11 -59 14 -34 7 8 20 28 26 45 11 25 10 35 -3 62 -20 40
-20 63 -1 92 15 24 7 51 -12 39z"/>
<path d="M505 652 c-3 -3 -5 -52 -5 -109 0 -84 3 -103 15 -103 11 0 15 19 17
92 l3 92 155 1 c85 0 162 -1 170 -3 13 -3 15 -36 15 -230 -1 -146 -5 -234 -12
-246 -9 -17 -23 -20 -102 -21 -90 -1 -125 5 -102 19 6 4 11 16 11 27 0 17 -8
19 -84 19 l-83 0 -7 40 c-4 26 -18 51 -41 74 -29 29 -32 36 -20 46 12 10 15 9
15 -4 0 -9 6 -16 14 -16 22 0 28 18 10 28 -23 13 2 20 41 11 17 -4 23 -7 14
-8 -22 -1 -20 -31 3 -31 10 0 18 7 18 17 0 14 5 13 27 -9 20 -21 27 -39 31
-82 3 -39 9 -56 18 -56 10 0 14 14 14 45 0 97 -55 159 -141 160 -39 0 -54 -6
-89 -34 -39 -31 -42 -32 -55 -15 -8 11 -15 22 -15 25 0 12 -47 26 -83 24 -29
-1 -46 -9 -68 -33 -17 -18 -38 -32 -48 -32 -10 0 -30 -9 -44 -20 -43 -34 -50
-28 -62 52 -6 39 -3 48 20 76 32 38 85 54 164 51 82 -3 144 -37 153 -84 2 -11
11 -21 22 -23 15 -3 17 1 11 20 -12 42 -26 63 -54 83 l-29 19 31 20 c16 12 36
31 44 43 13 20 12 23 -9 34 -35 19 -119 15 -156 -6 -18 -11 -32 -23 -32 -27 0
-4 -13 -5 -30 -1 -37 7 -42 -18 -8 -35 22 -10 22 -11 -6 -11 -43 -1 -113 -38
-137 -73 -18 -25 -21 -39 -16 -84 3 -30 13 -69 22 -86 18 -36 12 -86 -13 -104
-12 -9 -12 -15 -2 -34 9 -18 10 -25 1 -28 -22 -7 -11 -51 23 -87 l34 -36 437
3 437 3 29 33 c21 23 29 42 27 60 -3 25 -7 27 -48 27 l-45 0 0 37 c0 32 4 37
27 42 15 3 37 15 48 26 18 18 20 33 20 160 0 136 -1 142 -25 165 -13 14 -33
25 -45 25 -20 0 -24 7 -20 48 1 12 -2 23 -7 24 -24 4 -393 4 -398 0z m-235
-67 c0 -2 -10 -9 -22 -15 -22 -11 -22 -10 -4 4 21 17 26 19 26 11z m67 -26
c-22 -13 -77 -29 -77 -23 0 6 63 32 80 33 11 0 10 -2 -3 -10z m611 -25 c21
-14 22 -22 22 -138 0 -125 -6 -146 -42 -159 -21 -7 -20 -14 -20 153 1 182 -2
174 40 144z m-631 -180 c2 -5 -20 -9 -49 -9 -57 1 -71 16 -23 26 32 6 67 -2
72 -17z m-166 -58 c-7 -8 -16 -28 -21 -45 -7 -26 -6 -31 9 -31 12 0 20 10 24
30 4 19 17 34 36 45 42 21 43 19 21 -17 -24 -40 -25 -58 -4 -58 8 0 20 13 25
29 10 28 55 68 66 58 2 -3 -3 -19 -11 -36 -21 -40 -20 -51 6 -51 12 0 19 3 15
6 -11 11 23 64 47 75 30 14 60 -1 86 -44 42 -68 43 -67 -185 -67 l-205 0 6 28
c9 39 32 72 57 82 32 13 41 12 28 -4z m478 -145 c3 0 -1 -7 -7 -13 -10 -10
-81 -13 -282 -13 -230 0 -269 2 -278 15 -8 14 22 15 277 14 157 -1 288 -2 290
-3z m336 -63 c3 -3 -6 -17 -21 -31 l-26 -26 -409 -1 c-409 0 -440 2 -461 34
-4 6 -8 16 -8 21 0 10 915 13 925 3z"/>
<path d="M820 590 c-12 -7 -12 -12 -2 -22 14 -14 35 1 24 19 -5 8 -13 9 -22 3z"/>
<path d="M810 515 c0 -8 9 -15 20 -15 13 0 18 5 14 15 -4 8 -12 15 -20 15 -8
0 -14 -7 -14 -15z"/>
</g>
</svg>
